<?xml version="1.0" encoding="utf-8"?>
<svg width="26px" height="28px" viewBox="0 0 26 28" version="1.1" xmlns:xlink="http://www.w3.org/1999/xlink" xmlns="http://www.w3.org/2000/svg">
  <path d="M18.5271 0.500659L17.2449 12.3647L15.0577 2.36197L8.20037 3.77966L10.3865 13.7817L0.5 15.8248L2.24622 23.8146L19.6319 27.407L23.6078 18.725L25.5 1.21335L18.5265 0.5L18.5271 0.500659ZM18.5271 0.500659L18.5272 0.500692L18.5272 0.500346L18.5271 0.500659ZM13.0335 17.7117C12.675 18.031 12.2011 18.0016 11.6981 17.8388C11.1962 17.6768 10.9731 17.0863 11.1633 16.3726C11.305 15.8428 11.9719 15.7632 12.3056 15.7576C12.4324 15.7556 12.5571 15.7805 12.6722 15.8311C12.9081 15.9349 13.3076 16.1566 13.3887 16.4945C13.5056 16.9821 13.393 17.3914 13.0345 17.7107L13.0338 17.7107L13.0338 17.7114L13.0335 17.7117ZM16.4501 18.4403C17.1227 18.7603 17.8064 18.7021 18.0667 18.2623L18.0688 18.2623C18.3299 17.8215 18.4538 17.3807 18.2059 16.9811C17.959 16.5801 17.5219 16.3584 17.014 16.3716C16.7016 16.3796 16.4313 16.6396 16.2695 16.8391C16.1515 16.9842 16.0764 17.1563 16.0499 17.3391C16.0003 17.6743 15.9967 18.2242 16.4501 18.4403Z" id="Combined-Shape" fill="#00CCBC" fill-rule="evenodd" stroke="none" />
</svg>